<?xml version="1.0" encoding="iso-8859-1"?>
<!-- Uploaded to: SVG Repo, www.svgrepo.com, Generator: SVG Repo Mixer Tools -->
<svg fill="#000000" height="800px" width="800px" version="1.1" id="Layer_1" xmlns="http://www.w3.org/2000/svg" xmlns:xlink="http://www.w3.org/1999/xlink" 
	 viewBox="0 0 501.536 501.536" xml:space="preserve">
<g>
	<g>
		<path d="M491.301,103.669c-14.933-40.533-48-74.667-87.467-92.8c-48-22.4-102.4-9.6-153.6,33.067
			c-50.133-41.6-105.6-54.4-152.533-33.067c-39.467,18.133-72.533,52.267-87.467,92.8c-4.267,10.667,1.067,22.4,11.733,26.667
			c2.133,1.067,5.333,1.067,7.467,1.067c8.533,0,17.067-4.267,20.267-12.8c10.667-29.867,35.2-55.467,65.067-69.333
			c49.067-22.4,97.067,13.867,120.533,37.333c5.333,5.333,12.8,7.467,20.267,5.333c4.267-1.067,7.467-2.133,10.667-5.333
			c24.533-23.467,72.533-59.733,122.667-38.4c29.867,12.8,53.333,39.467,65.067,69.334c3.2,8.533,10.667,13.867,19.2,13.867
			c2.133,0,4.267,0,6.4-1.067C490.235,126.069,495.568,114.336,491.301,103.669z"/>
	</g>
</g>
<g>
	<g>
		<path d="M345.169,386.336c-8.534-7.466-22.4-6.4-29.867,2.133c-4.267,4.267-8.533,9.6-13.867,16
			c-13.867,18.133-33.067,40.533-49.067,52.267c-16-12.8-35.2-35.2-50.133-52.267c-5.333-6.4-9.6-11.733-13.867-16
			c-8.533-8.533-21.333-9.6-29.867-2.133c-8.533,8.533-9.6,21.333-2.133,29.867c3.2,4.267,8.533,9.6,12.8,14.933
			c21.333,24.533,46.933,55.467,71.467,68.267c3.2,1.067,6.4,2.133,9.6,2.133h1.067h1.067c3.2,0,6.4-1.067,10.667-2.133
			c24.533-12.8,51.2-43.733,71.467-68.267c4.267-5.333,8.533-10.667,12.8-14.933C354.769,407.669,353.702,393.803,345.169,386.336z"
			/>
	</g>
</g>
<g>
	<g>
		<path d="M96.634,295.669c0.001-1.066-2.133-2.133-5.333-2.133h-60.8V189.003c0-2.133-1.067-4.267-2.133-6.4
			c-2.133-2.133-3.2-2.133-6.4-2.133s-4.267,1.067-6.4,2.133c-1.067,2.133-2.133,3.2-2.133,6.4V298.87c0,3.2,1.067,6.4,3.2,8.533
			c2.133,2.133,5.333,3.2,8.533,3.2h65.067c2.133,0,4.267-1.067,6.4-2.133c2.133-1.067,2.133-3.2,2.133-6.4
			C98.767,299.936,97.701,297.803,96.634,295.669z"/>
	</g>
</g>
<g>
	<g>
		<path d="M224.635,197.536c-11.733-12.8-27.733-18.133-46.933-18.133c-19.2,0-35.2,6.4-46.933,18.133
			c-11.733,12.8-18.133,27.733-18.133,48c0,19.2,6.4,35.2,18.133,48c11.733,12.8,27.733,18.133,46.933,18.133
			c20.267,1.066,35.2-5.333,46.933-18.133c11.733-11.733,17.067-27.733,18.133-48C242.768,226.336,236.368,210.336,224.635,197.536z
			 M212.901,282.87c-8.533,9.6-20.267,14.933-35.2,14.933c-14.933,0-26.667-5.333-35.2-14.933c-8.534-9.6-12.8-22.4-12.8-36.267
			c0-14.933,4.267-26.667,12.8-36.267c8.533-9.6,20.267-14.933,35.2-14.933c14.933,0,26.667,5.333,35.2,14.933
			c8.533,9.6,12.8,21.333,12.8,36.267C225.701,261.536,221.435,273.27,212.901,282.87z"/>
	</g>
</g>
<g>
	<g>
		<path d="M373.968,182.603c-1.067-2.133-5.333-2.133-8.533-2.133c-3.2,0-5.333,2.133-7.467,5.333l-43.733,107.733l-43.733-107.733
			c-2.133-4.267-4.267-5.333-8.533-5.333c-2.133,0-4.267,1.067-5.333,2.133c-1.067,1.067-2.133,3.2-2.133,5.333s0,3.2,1.067,4.267
			l45.867,110.933c2.133,5.333,6.4,8.533,11.733,8.533h4.267c5.333,0,8.533-3.2,11.733-8.533l45.867-110.933
			c0-1.067,1.067-2.133,1.067-4.267C376.101,185.803,375.034,184.736,373.968,182.603z"/>
	</g>
</g>
<g>
	<g>
		<path d="M478.501,296.736h-65.067v-40.533h58.667c2.133,0,4.267-1.067,5.333-2.133c1.067-1.067,2.133-3.2,2.133-5.333
			s-1.067-4.267-2.133-5.333c-1.067-1.067-3.2-2.133-5.333-2.133h-58.667v-43.733h65.067c2.133,0,4.267-1.067,5.333-2.133
			c1.067-1.067,2.133-3.2,2.133-5.333c0-2.133-1.067-4.267-2.133-5.333c-1.067-1.067-3.2-2.133-5.333-2.133h-73.6
			c-2.133,0-4.267,1.067-6.4,2.133c-2.133,2.133-2.133,3.2-2.133,6.4v112c0,2.133,1.067,4.267,2.133,6.4
			c1.067,2.133,3.2,2.133,6.4,2.133h73.6c2.133,0,4.267-1.067,5.333-2.133c1.067-1.067,2.133-3.2,2.133-5.333
			s-1.067-4.267-2.133-5.333C482.768,297.803,480.635,296.736,478.501,296.736z"/>
	</g>
</g>
</svg>