<?xml version="1.0" encoding="iso-8859-1"?>
<!-- Uploaded to: SVG Repo, www.svgrepo.com, Generator: SVG Repo Mixer Tools -->
<svg fill="#000000" height="800px" width="800px" version="1.1" id="Layer_1" xmlns="http://www.w3.org/2000/svg" xmlns:xlink="http://www.w3.org/1999/xlink" 
	 viewBox="0 0 501.61 501.61" xml:space="preserve">
<g>
	<g>
		<path d="M480.138,151.743h-99.2c19.2-34.133,17.067-62.933,12.8-82.133c-10.667-36.267-41.6-58.667-64-66.133
			c-24.533-8.533-54.4-1.067-81.067,19.2c-25.6-20.267-54.4-27.733-78.933-18.133c-23.467,7.467-53.333,29.867-64,66.133
			c-5.333,19.2-6.4,48,12.8,82.133H21.472c-11.733,0-21.333,9.6-21.333,21.333v306.133c0,11.733,9.6,21.333,21.333,21.333h458.667
			c11.733,0,21.333-9.6,21.333-21.333v-307.2C501.471,161.343,491.871,151.743,480.138,151.743z M145.205,82.41
			c5.333-19.2,22.4-33.067,37.333-38.4c13.867-4.267,33.067,3.2,51.2,21.333c7.467,7.467,18.133,8.533,26.667,3.2
			c2.133-1.067,4.267-2.133,5.333-4.267c18.133-18.133,37.333-25.6,51.2-21.333c14.933,5.333,32,19.2,37.333,38.4
			c6.4,21.333-1.067,44.8-21.333,70.4c-26.667,33.067-66.133,77.867-83.2,96c-18.133-18.133-56.533-61.867-83.2-94.933
			C147.338,127.21,138.805,102.677,145.205,82.41z M149.471,195.477c77.867,93.867,92.8,98.133,100.267,98.133h2.133
			c1.067,0,11.733-4.267,13.867-6.4c12.8-9.6,37.333-33.067,85.333-92.8h75.733l-173.867,144L81.205,195.477H149.471z
			 M41.738,460.01V218.943l197.333,163.2c4.267,3.2,9.6,5.333,13.867,5.333c5.333,0,9.6-2.133,13.867-5.333l193.067-161.067V460.01
			H41.738z"/>
	</g>
</g>
</svg>